<?xml version="1.0" encoding="utf-8"?>

<!DOCTYPE svg PUBLIC "-//W3C//DTD SVG 1.1//EN" "http://www.w3.org/Graphics/SVG/1.1/DTD/svg11.dtd">
<!-- Uploaded to: SVG Repo, www.svgrepo.com, Generator: SVG Repo Mixer Tools -->
<svg height="800px" width="800px" version="1.1" id="_x32_" xmlns="http://www.w3.org/2000/svg" xmlns:xlink="http://www.w3.org/1999/xlink" 
	 viewBox="0 0 512 512"  xml:space="preserve">
<style type="text/css">
	.st0{fill:#000000;}
</style>
<g>
	<path class="st0" d="M504.434,230.492c-3.91-4.611-9.258-6.948-15.909-6.948c-11.999,0-28.294,7.541-51.304,23.728
		c-10.193,7.191-46.415,17.634-79.94,17.634c-20.061,0-46.432-3.738-58.206-21.607c-9.617-14.57-8.215-36.617,4.278-65.792
		c4.054-11.936,6.885-29.787,6.885-43.395c0-66.386-54.836-120.404-122.238-120.404c-49.712,0-93.754,29.004-112.818,74.098
		c-6.139,1.123-11.388,1.69-15.972,1.69c-15.837,0-20.502-6.508-27.396-17.994c-2.957-4.935-7.361-7.649-12.43-7.649
		c-8.646,0-18.21,8.512-19.234,22.758c-1.429,20.124,7.137,47.411,35.071,62.035c-6.705,4.134-12.753,9.303-18.317,15.666
		c-4.117,4.7-5.15,10.309-2.831,15.405c2.822,6.228,10.057,10.408,18.003,10.408c2.481,0,4.944-0.413,7.316-1.222
		c3.29-1.115,7.298-1.672,12.287-1.672c4.62,0,9.536,0.458,14.3,0.908c4.342,0.405,8.467,0.792,12.404,0.854
		c4.943,10.66,11.397,21.302,19.181,31.683c3.182,4.233,1.518,7.406-9.258,23.27c-4.468,6.579-10.03,14.758-16.673,25.616
		c-34.829,56.822-33.552,123.172,3.263,169.029c47.924,59.699,142.793,59.699,243.234,59.699
		c141.499,0,180.597-144.816,190.825-207.085C514.158,259.541,512.72,240.253,504.434,230.492z M479.536,286.371
		c-5.141,31.261-16.34,76.434-40.536,114.22c-13.338,20.817-29.229,37.04-47.25,48.212c-21.032,13.06-45.802,19.675-73.621,19.675
		c-93.09,0-181.02,0-219.991-48.554c-14.435-17.994-21.968-40.491-21.77-65.047c0.188-23.513,7.532-48.284,20.682-69.747
		c6.309-10.274,11.631-18.12,15.918-24.43c11.55-17.024,24.645-36.312,8.449-57.91c-6.248-8.332-11.433-16.771-15.478-25.256
		c7.442-4.988,11.559-12.017,11.729-20.116c0.171-9.221-5.042-18.272-13.293-23.036c-6.499-3.766-10.246-7.37-11.118-10.722
		c-0.828-3.164,0.988-6.247,2.921-9.519l0.089-0.144l0.54-0.108l1.222-3.065c0.351-0.71,0.62-1.375,0.845-2.031l3.137-7.856
		C116.042,66.055,149.8,43.514,188,43.514c50.962,0,92.424,40.644,92.424,90.599c0,9.977-2.184,24.223-4.961,32.815
		c-16.206,38.28-16.646,69.496-1.277,92.793c15.091,22.893,43.835,34.999,83.094,34.999c38.487,0,81.28-11.927,97.116-23.072
		c13.661-9.618,22.398-14.183,27.647-16.35C482.412,260.88,482.152,270.498,479.536,286.371z"/>
	<path class="st0" d="M157.351,97.405c-8.935,0-16.17,7.244-16.17,16.178c0,8.917,7.235,16.17,16.17,16.17
		c8.925,0,16.169-7.253,16.169-16.17C173.52,104.65,166.276,97.405,157.351,97.405z"/>
</g>
</svg>