<?xml version="1.0" encoding="utf-8"?>

<!DOCTYPE svg PUBLIC "-//W3C//DTD SVG 1.1//EN" "http://www.w3.org/Graphics/SVG/1.1/DTD/svg11.dtd">
<!-- Uploaded to: SVG Repo, www.svgrepo.com, Generator: SVG Repo Mixer Tools -->
<svg height="800px" width="800px" version="1.1" id="_x32_" xmlns="http://www.w3.org/2000/svg" xmlns:xlink="http://www.w3.org/1999/xlink" 
	 viewBox="0 0 512 512"  xml:space="preserve">
<style type="text/css">
	.st0{fill:#000000;}
</style>
<g>
	<path class="st0" d="M442.973,250.491c-25.635,18.05-196.165,53.474-141.134-74.936c3.975-11.693,6.732-29.452,6.732-42.457
		c0-64.839-53.389-117.403-119.24-117.403c-50.361,0-93.398,30.764-110.867,74.224c-34.196,6.826-42.062-6.929-48.861-22.794
		C22.261,50.005,3.509,54.898,0.255,76.915c-2.288,15.462,10.727,57.347,44.004,70.52c-9.423,4.482-17.365,10.671-24.444,18.754
		c-9.507,10.877,2.654,29.198,16.147,24.566c12.733-4.37,32.433-6.001,45.419-6.358c5.814,13.109,13.09,24.398,19.972,33.568
		c7.351,9.799-3.319,16.916-25.936,53.812c-30.979,50.549-35.874,117.403,2.992,165.822
		c46.497,57.937,139.418,58.706,242.137,58.706c141.998,0,178.706-146.076,188.466-205.456
		C521.529,214.702,493.813,214.702,442.973,250.491z M153.119,131.945c-10.802,0-19.559-8.758-19.559-19.569
		c0-10.802,8.758-19.569,19.559-19.569c10.811,0,19.569,8.767,19.569,19.569C172.688,123.187,163.93,131.945,153.119,131.945z"/>
</g>
</svg>